<svg width="81" height="96" viewBox="0 0 81 96" fill="none" xmlns="http://www.w3.org/2000/svg">
<path d="M68.713 7.47242C64.3042 2.42383 56.3346 0.259384 46.139 0.259384H16.5487C15.5399 0.259422 14.5643 0.620986 13.7971 1.27907C13.03 1.93716 12.5217 2.8486 12.3636 3.84953L0.042715 82.3556C-0.202183 83.9037 0.990985 85.3055 2.55277 85.3055H20.8208L25.4087 56.0697L25.2663 56.9852C25.5932 54.9187 27.3524 53.3944 29.4356 53.3944H38.1165C55.1702 53.3944 68.5235 46.4354 72.4241 26.3043C72.5399 25.7089 72.6402 25.1294 72.7269 24.5633C72.2346 24.3013 72.2346 24.3013 72.7269 24.5633C73.8885 17.1226 72.719 12.0578 68.713 7.47242Z" fill="#27346A"/>
<path d="M32.3987 21.8829C32.8982 21.644 33.4444 21.5202 33.9975 21.5205H57.1958C59.9429 21.5205 62.5051 21.7001 64.8465 22.0787C65.5017 22.1837 66.1535 22.309 66.801 22.4545C67.7186 22.6579 68.6257 22.9069 69.5189 23.2005C70.67 23.5867 71.742 24.0365 72.7272 24.5633C73.8885 17.1198 72.719 12.0578 68.713 7.47242C64.3017 2.42383 56.3346 0.259384 46.139 0.259384H16.5461C14.4626 0.259384 12.6901 1.7833 12.3636 3.84953L0.0427167 82.3527C-0.202182 83.9034 0.990986 85.3033 2.55024 85.3033H20.8208L30.3392 24.6612C30.4328 24.0651 30.6692 23.5008 31.0279 23.0169C31.3867 22.5329 31.8571 22.1437 32.3987 21.8829Z" fill="#27346A"/>
<path d="M72.4242 26.3043C68.5235 46.4325 55.1705 53.3944 38.1166 53.3944H29.4331C27.3499 53.3944 25.5903 54.9187 25.2667 56.9852L19.559 93.3365C19.3457 94.6913 20.3886 95.919 21.753 95.919H37.1525C38.0346 95.9187 38.8877 95.6023 39.5584 95.0266C40.229 94.4509 40.6732 93.6536 40.8111 92.7783L40.961 91.9899L43.8634 73.5096L44.0504 72.4883C44.1883 71.613 44.6324 70.8158 45.303 70.2401C45.9736 69.6644 46.8266 69.3479 47.7087 69.3476H50.0134C64.931 69.3476 76.6118 63.2589 80.0252 45.6496C81.45 38.2907 80.7127 32.1467 76.9437 27.8311C75.8005 26.524 74.3808 25.4445 72.727 24.5633C72.6374 25.1323 72.5403 25.7089 72.4242 26.3043Z" fill="#2790C3"/>
<path d="M68.6444 22.9281C68.0362 22.7497 67.4222 22.5917 66.8035 22.4545C66.1557 22.3114 65.504 22.1869 64.8491 22.0813C62.5051 21.7001 59.9448 21.5202 57.1952 21.5202H33.9998C33.4462 21.519 32.8996 21.6438 32.401 21.8855C31.8588 22.1455 31.3878 22.5344 31.0289 23.0185C30.67 23.5026 30.4339 24.0673 30.3412 24.6637L25.4109 56.0697L25.2686 56.9852C25.5929 54.9187 27.3521 53.3944 29.4356 53.3944H38.1191C55.1727 53.3944 68.5257 46.4354 72.4264 26.3043C72.5425 25.7089 72.6399 25.132 72.7295 24.5633C71.7417 24.0394 70.6725 23.5868 69.5211 23.2031C69.2306 23.1063 68.9384 23.0146 68.6447 22.9281" fill="#1F264F"/>
</svg>
