<svg width="127" height="41" viewBox="0 0 127 41" fill="none" xmlns="http://www.w3.org/2000/svg">
<path d="M48.2188 0.717193L31.5912 39.9948H20.7437L12.5611 8.64758C12.065 6.72147 11.6339 6.01263 10.1243 5.19818C7.65671 3.87088 3.5818 2.62954 0 1.85733L0.241598 0.717193H17.7061C19.9286 0.717193 21.9298 2.18253 22.4388 4.71972L26.7623 27.4503L37.4362 0.717193H48.2188ZM62.8834 0.717193L54.3987 39.9948H44.1355L52.6212 0.717193H62.8834ZM90.7222 27.1708C90.7648 16.8064 76.2491 16.2312 76.3439 11.6004C76.3786 10.1925 77.7329 8.69375 80.6976 8.3106C82.166 8.12246 86.2231 7.97263 90.8184 10.0692L92.6162 1.73502C90.1472 0.850807 86.9697 0 83.0173 0C72.8722 0 65.7359 5.33572 65.6788 12.9822C65.6124 18.6382 70.7762 21.7904 74.6596 23.6742C78.6596 25.5979 80.0011 26.8343 79.9827 28.5536C79.9539 31.1891 76.7879 32.3557 73.8446 32.3989C68.6832 32.48 65.6912 31.0176 63.3045 29.9168L61.4417 38.527C63.8428 39.6166 68.268 40.5632 72.8514 40.6113C83.6365 40.6113 90.6904 35.3365 90.7222 27.1708ZM117.511 39.9948H127L118.71 0.717193H109.956C107.981 0.717193 106.322 1.85193 105.586 3.59628L90.1869 39.9948H100.964L103.101 34.1276H116.268L117.511 39.9948ZM106.056 26.0788L111.46 11.3287L114.564 26.0788H106.056Z" fill="#1A1F71"/>
</svg>
